PathFileType	4	(X/Y/Z)	Patient4_TMGait_0pt5_01_right_23.trc.trc
DataRate	CameraRate	NumFrames	NumMarkers	Units	OrigDataRate	OrigDataStartFrame	OrigNumFrames
77.348066298343	77.348066298343	4	33	mm	77.348066298343	36	       141
Frame#	Time	L.ASIS			Sacral			L.Shoulder			Chest			R.Shoulder			Neck			R.ASIS			R.Thigh.Superior			R.Thigh.Lateral			R.Thigh.Inferior			R.Patella			L.Thigh.Superior			L.Thigh.Lateral			L.Thigh.Inferior			L.Patella			L.Shank.Superior			L.Shank.Lateral			L.Shank.Inferior			R.Shank.Superior			R.Shank.Lateral			R.Shank.Inferior			R.Heel			R.Midfoot.Superior			R.Midfoot.Lateral			R.Toe			L.Heel			L.Midfoot.Lateral			L.Midfoot.Superior			L.Toe			L.Elbow			L.Wrist			R.Elbow			R.Wrist			
		X1	Y1	Z1	X2	Y2	Z2	X3	Y3	Z3	X4	Y4	Z4	X5	Y5	Z5	X6	Y6	Z6	X7	Y7	Z7	X8	Y8	Z8	X9	Y9	Z9	X10	Y10	Z10	X11	Y11	Z11	X12	Y12	Z12	X13	Y13	Z13	X14	Y14	Z14	X15	Y15	Z15	X16	Y16	Z16	X17	Y17	Z17	X18	Y18	Z18	X19	Y19	Z19	X20	Y20	Z20	X21	Y21	Z21	X22	Y22	Z22	X23	Y23	Z23	X24	Y24	Z24	X25	Y25	Z25	X26	Y26	Z26	X27	Y27	Z27	X28	Y28	Z28	X29	Y29	Z29	X30	Y30	Z30	X31	Y31	Z31	X32	Y32	Z32	X33	Y33	Z33	

36	30.612500000000	942.488398843785	956.692243901895	334.211630879296	722.778422514725	996.143318725534	482.536879929719	885.157272779364	1426.965230647272	302.443288253530	980.335059967506	1364.406456175336	470.910739690322	882.940983243788	1438.244909328397	638.473551621033	876.548663554203	1491.928025680360	451.810503182541	947.630293645668	941.505266086448	609.112432260211	1012.694009673829	750.733886773649	577.092251707414	944.035512486567	633.701951419362	635.330982359109	1027.615362757432	589.573221067970	555.555201217734	1039.562913525387	499.076525637085	561.446868591764	966.014730900054	732.888445022731	357.875208802249	865.587234675965	627.416246423616	292.519329392763	940.553252258088	536.418243268167	351.516511101550	928.173890733285	454.144589126857	349.742620615348	865.684892269794	395.898747243329	344.616640531433	732.075629656811	336.276386677825	293.965227007736	730.246066740674	209.182397789520	355.996667398531	1014.638039695073	409.156241299224	569.520685392605	949.626914405570	303.271215702431	633.553925932652	994.249024677820	209.366508161765	571.358627039916	865.769875197741	43.264099709523	546.318964647781	1036.792182691197	98.240682314490	578.064890588931	950.344179917726	37.186981400086	619.480248493064	1157.952498239463	46.181758300285	604.808801617546	547.903228286016	113.075504531914	392.872805492265	616.218794268049	75.983137764924	317.972006736437	714.978110201994	108.516696446260	340.832820121369	815.551483482823	34.691150777250	324.735466024376	879.679509186399	1072.643059129739	182.264794555218	1020.042847482448	850.954706164644	172.100547186648	810.865547216829	1105.705581485741	763.607798996037	914.889999522013	866.364257620112	779.701851837925	
37	30.625428571429	942.160244769645	957.045223928979	337.004095602490	723.262307162822	996.619787647734	486.436851021541	884.850877529908	1427.375780015822	305.570360166195	981.059469201018	1364.698149814024	473.439226000806	884.823528431279	1438.543196824831	641.626945127552	877.027302550571	1492.267436012719	455.050014255868	948.822848580805	941.732433291065	611.732018308515	1012.436084128169	749.970342815439	579.820162242777	942.589969589275	633.505534271653	637.609237469176	1025.859701337498	588.899864784992	557.745473199378	1036.968984637594	498.300859419476	563.106512751346	970.311838433326	734.478991894977	360.213446419492	873.609133385140	626.897793679277	294.217236795640	951.338167512202	537.177334199099	352.805565731779	939.760414037654	453.707372574342	350.117930560427	875.175437917577	395.786939183039	345.174582843505	739.394078126899	341.089156327162	294.747344518012	733.636050632094	213.861143852075	355.904036764038	1011.328918228392	408.462955804671	570.882740638491	945.650031914003	302.886925977685	634.661732079692	989.151172533270	208.832491231840	571.912890090929	859.356710693966	43.275134669465	546.465468280292	1030.472337386867	98.103798106922	578.264008716321	943.910814075994	37.153902260667	619.720719855820	1151.614674422191	45.712404079192	605.013886588208	547.975709561393	126.580640704335	392.727529259580	613.908258111668	85.297061623046	317.917198458642	714.317177072096	112.260318769921	340.346629398682	809.470711301024	33.680799034149	324.723891065586	875.596094110086	1072.896686642451	186.230764875835	1010.140465211035	847.697921623773	174.529013942048	816.711986117734	1105.536192136139	768.155329489476	930.341067426819	870.551891617611	780.071441624251	
38	30.638357142857	941.530433219834	957.157804531301	339.603052029638	723.498634474827	996.944059302816	490.270684384722	884.311138272635	1427.577624956419	308.587240222786	981.681984865971	1364.740843509515	475.770650594608	886.774193166993	1438.617020042376	644.649769716929	877.461211693843	1492.428202422339	458.180853955328	949.836039948765	941.783614618441	614.188422848156	1011.970639488608	749.103928563803	582.417456670161	941.102063250928	633.246677254292	639.866313448377	1023.989270522271	588.172839658355	559.851653774122	1034.298868693166	497.472233421354	564.791943740554	974.650044810905	736.225217482048	362.444162989140	881.929949542500	626.500090648367	295.822005325955	962.374204793106	538.271006186064	354.157083403878	951.714266215847	453.645309895932	350.753691742645	885.196931004608	395.943421617294	345.875306381668	747.471084940907	346.179407245764	295.595222081931	737.706954162618	219.021013005812	356.011662984548	1007.946882461714	407.707842847692	572.266694231116	941.591652365664	302.431669663622	635.764827740015	984.006667956782	208.254234956322	572.489075306819	852.889526476383	43.274757279086	546.610664895116	1024.107992294857	97.936902487287	578.475926928041	937.420412383937	37.096242835945	619.950522311343	1145.221292538734	45.203861860069	605.221200595983	549.084934393419	140.904242505047	392.738141550083	612.440567226822	95.617212597677	317.962266125112	714.274323739252	116.756523683874	340.078319687840	803.737044407467	32.643387837104	324.703884825654	871.358826410518	1072.974899286277	190.054348709814	1000.117353511083	844.514004185154	176.980329286105	822.533283547142	1105.310487508094	772.817222180934	945.584307022809	875.110138430401	780.523761744646	
39	30.651285714286	940.605132893661	957.059061131614	341.991802864889	723.486983888485	997.141260961976	493.997554921160	883.544383253537	1427.619848743297	311.472586041250	982.182530892233	1364.573956248992	477.886893153528	888.753359190232	1438.497840355583	647.515515929938	877.856656727443	1492.448708614102	461.176930107770	950.655130121572	941.715126917263	616.478393001992	1011.317431314699	748.200142967252	584.847211190075	939.605455948796	632.955698101755	642.072799871667	1022.037213373564	587.421908566635	561.847658010669	1031.575562790494	496.612581503923	566.473263048635	978.914224675493	738.174934490501	364.574633609462	890.345727207515	626.329627732219	297.341556819829	973.424000478090	539.788899807272	355.549024041262	963.828489522160	454.054962351688	351.602696188211	895.559442995242	396.459702644684	346.691583270825	756.122063950101	351.516567929846	296.516874900710	742.399040918127	224.591309096778	356.324991477373	1004.516103105160	406.918779467492	573.645801495021	937.481565214498	301.941456211358	636.856685354933	978.838329669773	207.660588809712	573.080808898401	846.390544275080	43.275746660575	546.765004291118	1017.719360573478	97.758986697021	578.704111474922	930.900265664976	37.026504974476	620.172184219306	1138.793989568036	44.687151887528	605.428170882691	551.239309955118	155.641187154383	392.937020581287	611.934581678649	106.663291278690	318.132909700711	714.932457113913	121.955593907674	340.042025901632	798.619936317950	31.687054950334	324.684960757512	866.953355287279	1072.914482768630	193.748838456354	989.988160626356	841.437814840609	179.462926090585	828.433528338694	1105.008901934884	777.521941115159	960.559438034705	879.941600869946	781.059684401305	
